FILE "Kiosk Demo Disc Version 1.18 [SCUS-94667].bin" BINARY
  TRACK 01 MODE2/2352
    INDEX 01 00:00:00
  TRACK 02 AUDIO
    PREGAP 00:02:00
    INDEX 01 32:55:35
  TRACK 03 AUDIO
    INDEX 00 33:41:14
    INDEX 01 33:43:14
  TRACK 04 AUDIO
    INDEX 00 34:35:19
    INDEX 01 34:37:19
  TRACK 05 AUDIO
    INDEX 00 36:24:51
    INDEX 01 36:26:51
  TRACK 06 AUDIO
    INDEX 00 37:17:59
    INDEX 01 37:19:59
  TRACK 07 AUDIO
    INDEX 00 39:53:39
    INDEX 01 39:55:39
